<?xml version="1.0" encoding="UTF-8" standalone="no"?>
<svg
   xmlns:dc="http://purl.org/dc/elements/1.1/"
   xmlns:cc="http://creativecommons.org/ns#"
   xmlns:rdf="http://www.w3.org/1999/02/22-rdf-syntax-ns#"
   xmlns:svg="http://www.w3.org/2000/svg"
   xmlns="http://www.w3.org/2000/svg"
   xmlns:sodipodi="http://sodipodi.sourceforge.net/DTD/sodipodi-0.dtd"
   xmlns:inkscape="http://www.inkscape.org/namespaces/inkscape"
   id="a0910be2-6cb3-414b-9b74-c9f97494131d"
   data-name="Layer 1"
   width="887"
   height="500"
   viewBox="0 0 887 500"
   version="1.1"
   sodipodi:docname="4040_larisse.svg"
   inkscape:version="0.92.4 (f8dce91, 2019-08-02)">
  <metadata
     id="metadata95">
    <rdf:RDF>
      <cc:Work
         rdf:about="">
        <dc:format>image/svg+xml</dc:format>
        <dc:type
           rdf:resource="http://purl.org/dc/dcmitype/StillImage" />
        <dc:title>lost_online</dc:title>
      </cc:Work>
    </rdf:RDF>
  </metadata>
  <defs
     id="defs93" />
  <sodipodi:namedview
     pagecolor="#ffffff"
     bordercolor="#666666"
     borderopacity="1"
     objecttolerance="10"
     gridtolerance="10"
     guidetolerance="10"
     inkscape:pageopacity="0"
     inkscape:pageshadow="2"
     inkscape:window-width="1853"
     inkscape:window-height="1025"
     id="namedview91"
     showgrid="false"
     inkscape:zoom="0.29760404"
     inkscape:cx="443.5"
     inkscape:cy="396.5"
     inkscape:window-x="67"
     inkscape:window-y="27"
     inkscape:window-maximized="1"
     inkscape:current-layer="a0910be2-6cb3-414b-9b74-c9f97494131d" />
  <title
     id="title2">lost_online</title>
  <path
     d="M -13.440678,-0.66525424 H 889.36017 v 5.003e-4 A 747.9178,505.50797 0 0 1 141.44237,504.84322 H -13.440678 Z"
     id="path6"
     inkscape:connector-curvature="0"
     style="fill:#3f3d56;stroke-width:0.83771312" />
  <circle
     cx="676.38019"
     cy="130.7173"
     r="71.883133"
     id="circle8"
     style="fill:#f2f2f2" />
  <circle
     cx="455.59625"
     cy="-15.102769"
     r="6.1614099"
     id="circle10"
     style="fill:#ff6584" />
  <circle
     cx="676.38019"
     cy="-15.102769"
     r="6.1614099"
     id="circle14"
     style="fill:#f2f2f2" />
  <ellipse
     cx="385.34705"
     cy="186.82628"
     id="circle18"
     style="fill:#f2f2f2;stroke-width:0.55105299"
     rx="3.4408419"
     ry="3.3502882" />
  <ellipse
     cx="203.55583"
     cy="164.49103"
     id="circle20"
     style="fill:#f2f2f2;stroke-width:0.55105299"
     rx="3.4408419"
     ry="3.3502882" />
  <ellipse
     cx="268.35837"
     cy="303.52798"
     id="circle22"
     style="fill:#6c63ff;stroke-width:0.55105299"
     rx="116.98866"
     ry="113.90983" />
  <ellipse
     cx="263.19711"
     cy="257.18231"
     id="circle24"
     style="opacity:0.2;stroke-width:0.55105299"
     rx="17.204216"
     ry="16.751448" />
  <ellipse
     cx="263.19711"
     cy="369.41702"
     id="circle26"
     style="opacity:0.2;stroke-width:0.55105299"
     rx="29.820639"
     ry="29.035839" />
  <ellipse
     cx="176.60257"
     cy="325.30487"
     id="circle28"
     style="opacity:0.2;stroke-width:0.55105299"
     rx="7.4551568"
     ry="7.2589569" />
  <ellipse
     cx="302.71561"
     cy="231.99535"
     id="circle32"
     style="opacity:0.2;stroke-width:0.55105299"
     rx="3.9631162"
     ry="3.8588176" />
  <ellipse
     cx="258.03583"
     cy="308.55344"
     id="circle34"
     style="opacity:0.2;stroke-width:0.55105299"
     rx="5.1612659"
     ry="5.025435" />
  <ellipse
     cx="461.09677"
     cy="186.32773"
     id="circle36"
     style="opacity:0.2;stroke-width:0.55105299"
     rx="3.9631162"
     ry="3.8588176" />
  <ellipse
     cx="354.43063"
     cy="281.25256"
     id="circle38"
     style="opacity:0.2;stroke-width:0.55105299"
     rx="3.9631162"
     ry="3.8588176" />
  <ellipse
     cx="321.70166"
     cy="320.60849"
     id="circle42"
     style="opacity:0.2;stroke-width:0.55105299"
     rx="5.7244968"
     ry="5.573843" />
  <ellipse
     cx="196.10069"
     cy="257.18231"
     id="circle44"
     style="opacity:0.2;stroke-width:0.55105299"
     rx="7.4551568"
     ry="7.2589569" />
  <path
     d="m 293.70548,369.18747 a 327.26474,318.65201 0 0 1 -36.81825,-2.07157 c -36.76335,-4.06518 -70.66945,-13.67106 -95.47219,-27.0477 -25.10626,-13.54075 -37.95316,-29.39573 -36.17475,-44.64434 1.23207,-10.56454 11.71925,-20.02049 32.06049,-28.90715 a 1.1472135,1.117022 0 0 1 0.93918,2.03831 c -19.53872,8.53549 -29.58739,17.40689 -30.72033,27.12077 -1.66722,14.2927 10.76525,29.3641 35.0071,42.43863 24.54513,13.23811 58.14823,22.74914 94.61926,26.78213 36.47128,4.03302 71.40869,2.10048 98.37764,-5.44095 26.63573,-7.44872 42.22257,-19.42175 43.88923,-33.71446 1.12791,-9.66916 -4.34195,-19.92125 -15.81811,-29.64875 a 1.1471867,1.1169959 0 0 1 1.50649,-1.68496 c 12.07095,10.2319 17.80793,21.15415 16.591,31.58563 -1.77866,15.24862 -17.94962,27.8951 -45.53517,35.60882 -17.96061,5.02271 -39.39811,7.58559 -62.45159,7.58559 z"
     id="path46"
     inkscape:connector-curvature="0"
     style="fill:#ffffff;stroke-width:0.55105299" />
</svg>
