<?xml version="1.0" encoding="UTF-8" standalone="no"?>
<svg
   xmlns:dc="http://purl.org/dc/elements/1.1/"
   xmlns:cc="http://creativecommons.org/ns#"
   xmlns:rdf="http://www.w3.org/1999/02/22-rdf-syntax-ns#"
   xmlns:svg="http://www.w3.org/2000/svg"
   xmlns="http://www.w3.org/2000/svg"
   xmlns:sodipodi="http://sodipodi.sourceforge.net/DTD/sodipodi-0.dtd"
   xmlns:inkscape="http://www.inkscape.org/namespaces/inkscape"
   width="1037mm"
   height="453mm"
   viewBox="0 0 1037 453"
   version="1.1"
   id="svg947"
   inkscape:version="1.0.1 (1.0.1+r74)"
   sodipodi:docname="hadiahe.svg">
  <defs
     id="defs941" />
  <sodipodi:namedview
     id="base"
     pagecolor="#ffffff"
     bordercolor="#666666"
     borderopacity="1.0"
     inkscape:pageopacity="0.0"
     inkscape:pageshadow="2"
     inkscape:zoom="0.13995495"
     inkscape:cx="2688.3972"
     inkscape:cy="643.79145"
     inkscape:document-units="mm"
     inkscape:current-layer="layer1"
     inkscape:document-rotation="0"
     showgrid="false"
     inkscape:window-width="1878"
     inkscape:window-height="1016"
     inkscape:window-x="42"
     inkscape:window-y="27"
     inkscape:window-maximized="1" />
  <metadata
     id="metadata944">
    <rdf:RDF>
      <cc:Work
         rdf:about="">
        <dc:format>image/svg+xml</dc:format>
        <dc:type
           rdf:resource="http://purl.org/dc/dcmitype/StillImage" />
        <dc:title></dc:title>
      </cc:Work>
    </rdf:RDF>
  </metadata>
  <g
     inkscape:label="Layer 1"
     inkscape:groupmode="layer"
     id="layer1">
    <path
       id="f5877e54-26d9-4110-bb17-7d90037dcb2b-191"
       data-name="Path 438"
       d="m 122.46063,410.54546 a 23.778994,23.808726 0 0 0 22.96204,-4.04971 c 8.04245,-6.7592 10.56446,-17.89099 12.61559,-28.20114 l 6.06855,-30.49668 -12.70495,8.75903 c -9.13726,6.29902 -18.47972,12.80047 -24.80567,21.92408 -6.32598,9.12366 -9.08579,21.5792 -4.00457,31.45184"
       fill="#e6e6e6"
       style="stroke-width:0.982625" />
    <path
       id="af7e5462-cb8c-4c3a-a84b-026a28a01614-192"
       data-name="Path 439"
       d="m 124.42241,449.5904 c -1.59911,-11.66485 -3.24439,-23.4805 -2.12001,-35.27039 0.99643,-10.47081 4.18702,-20.69597 10.68261,-29.08356 a 48.320693,48.381112 0 0 1 12.39753,-11.24864 c 1.23945,-0.78314 2.38049,1.18335 1.14634,1.96352 a 45.937878,45.995317 0 0 0 -18.17157,21.95141 c -3.9561,10.07428 -4.59133,21.0568 -3.90991,31.75885 0.41189,6.47184 1.28716,12.90127 2.1662,19.32307 a 1.1766146,1.1780859 0 0 1 -0.79347,1.3987 1.1425487,1.1439775 0 0 1 -1.39694,-0.7945 z"
       fill="#f2f2f2"
       style="stroke-width:0.982625" />
    <path
       id="b74da307-8ad0-4d1b-99e4-dedad26aca71-193"
       data-name="Path 442"
       d="m 135.93256,430.87301 a 17.504451,17.526338 0 0 0 15.252,7.88422 c 7.72292,-0.36678 14.15869,-5.76151 19.95162,-10.88471 l 17.13804,-15.15051 -11.34209,-0.54356 c -8.15677,-0.39116 -16.52399,-0.75806 -24.29309,1.76333 -7.76909,2.52138 -14.93399,8.58012 -16.3544,16.63188"
       fill="#e6e6e6"
       style="stroke-width:0.982625" />
    <path
       id="eea67ff0-2845-4236-af55-5d249be779f1-194"
       data-name="Path 443"
       d="m 119.90223,456.29576 c 7.69868,-13.63889 16.62773,-28.79701 32.58388,-33.64197 a 36.359982,36.405445 0 0 1 13.70438,-1.41691 c 1.45523,0.12598 1.0918,2.37133 -0.36039,2.24624 a 33.779497,33.821734 0 0 0 -21.87097,5.79341 c -6.16696,4.20284 -10.9688,10.04627 -15.03243,16.24216 -2.4895,3.79578 -4.7193,7.75228 -6.94911,11.70347 -0.7125,1.26297 -2.79616,0.35117 -2.07535,-0.9264 z"
       fill="#f2f2f2"
       style="stroke-width:0.982625" />
    <rect
       x="319.39322"
       y="168.35677"
       width="337.81137"
       height="288.08862"
       fill="#ffffff"
       id="rect6"
       style="stroke-width:0.982625" />
    <path
       d="M 658.18662,457.42866 H 318.41121 V 167.37353 H 658.18662 Z M 320.37524,455.46218 H 656.22258 V 169.34002 H 320.37524 Z"
       fill="#3f3d56"
       id="path8"
       style="stroke-width:0.982625" />
    <rect
       x="446.07248"
       y="224.40132"
       width="84.452843"
       height="232.04408"
       fill="#6c63ff"
       id="rect10"
       style="stroke-width:0.982625" />
    <rect
       x="446.07248"
       y="224.40132"
       width="84.452843"
       height="232.04408"
       fill="#6c63ff"
       id="rect12"
       style="stroke-width:0.982625" />
    <polygon
       points="242.602,384.506 585.602,406.468 584.591,347.81 242.602,336.968 "
       opacity="0.2"
       id="polygon14"
       transform="matrix(0.98200974,0,0,0.98323769,82.137356,-141.82337)" />
    <rect
       x="299.75302"
       y="141.80933"
       width="377.09177"
       height="82.591957"
       fill="#ffffff"
       id="rect16"
       style="stroke-width:0.982625" />
    <path
       d="M 677.82679,225.38456 H 298.77103 V 140.82611 H 677.82679 Z M 300.73505,223.41808 H 675.86279 V 142.79261 H 300.73505 Z"
       fill="#3f3d56"
       id="path18"
       style="stroke-width:0.982625" />
    <rect
       x="446.07248"
       y="133.94342"
       width="84.452843"
       height="89.47464"
       fill="#6c63ff"
       id="rect20"
       style="stroke-width:0.982625" />
    <path
       d="m 479.25665,55.929675 c 22.29303,33.087542 1.28883,86.304135 1.28883,86.304135 0,0 -57.14825,-0.42897 -79.44128,-33.51651 -22.29299,-33.087563 -1.28883,-86.304131 -1.28883,-86.304131 0,0 57.14829,0.429 79.44128,33.516506 z"
       fill="#6c63ff"
       id="path22"
       style="stroke-width:0.982625" />
    <path
       d="m 489.48508,55.929675 c -22.293,33.087542 -1.28883,86.304135 -1.28883,86.304135 0,0 57.14829,-0.42897 79.44128,-33.51651 22.29303,-33.087563 1.28882,-86.304131 1.28882,-86.304131 0,0 -57.14825,0.429 -79.44127,33.516506 z"
       fill="#6c63ff"
       id="path24"
       style="stroke-width:0.982625" />
    <ellipse
       cx="429.37833"
       cy="71.999466"
       fill="#3f3d56"
       id="circle26"
       style="stroke-width:0.982625"
       rx="8.838088"
       ry="8.8491373" />
    <ellipse
       cx="482.40683"
       cy="161.47411"
       fill="#3f3d56"
       id="circle28"
       style="stroke-width:0.982625"
       rx="8.838088"
       ry="8.8491373" />
    <ellipse
       cx="482.40683"
       cy="355.17197"
       fill="#3f3d56"
       id="circle30"
       style="stroke-width:0.982625"
       rx="8.838088"
       ry="8.8491373" />
    <ellipse
       cx="452.94653"
       cy="104.44627"
       fill="#3f3d56"
       id="circle32"
       style="stroke-width:0.982625"
       rx="5.8920588"
       ry="5.899426" />
    <ellipse
       cx="541.32739"
       cy="54.301193"
       fill="#3f3d56"
       id="circle34"
       style="stroke-width:0.982625"
       rx="5.8920588"
       ry="5.899426" />
    <ellipse
       cx="503.02902"
       cy="192.93768"
       fill="#3f3d56"
       id="circle36"
       style="stroke-width:0.982625"
       rx="5.8920588"
       ry="5.899426" />
    <ellipse
       cx="467.6767"
       cy="269.63025"
       fill="#3f3d56"
       id="circle38"
       style="stroke-width:0.982625"
       rx="5.8920588"
       ry="5.899426" />
    <ellipse
       cx="498.11899"
       cy="296.17764"
       fill="#3f3d56"
       id="circle40"
       style="stroke-width:0.982625"
       rx="5.8920588"
       ry="5.899426" />
    <ellipse
       cx="491.24496"
       cy="407.28357"
       fill="#3f3d56"
       id="circle42"
       style="stroke-width:0.982625"
       rx="5.8920588"
       ry="5.899426" />
    <polygon
       points="775.663,597.421 770.442,555.095 786.638,555.096 786.636,597.422 "
       fill="#ffb7b7"
       id="polygon44"
       transform="matrix(0.98200974,0,0,0.98323769,82.137356,-141.82337)" />
    <path
       d="m 857.36959,456.04292 -34.74618,-9.1e-4 v -0.44003 A 13.524906,13.541818 0 0 1 836.1476,442.0611 h 7.5e-4 l 21.2218,8.5e-4 z"
       fill="#2f2e41"
       id="path46"
       style="stroke-width:0.982625" />
    <polygon
       points="824.411,597.421 829.631,555.095 813.435,555.096 813.437,597.422 "
       fill="#ffb7b7"
       id="polygon48"
       transform="matrix(0.98200974,0,0,0.98323769,82.137356,-141.82337)" />
    <path
       d="m 878.19207,442.06161 21.22176,-8.4e-4 h 7.6e-4 a 13.524906,13.541818 0 0 1 13.52418,13.54087 v 0.44003 l -34.74616,9e-4 z"
       fill="#2f2e41"
       id="path50"
       style="stroke-width:0.982625" />
    <ellipse
       cx="271.81296"
       cy="798.06812"
       transform="matrix(0.44450512,-0.89577631,0.89533319,0.44539698,0,0)"
       fill="#ffb7b7"
       id="circle52"
       style="stroke-width:0.982626"
       rx="18.853476"
       ry="18.839251" />
    <path
       d="m 821.49009,241.70533 c 0,0 -5.94776,24.81335 -2.97386,36.72376 2.9739,11.91041 11.89553,93.29813 11.89553,93.29813 l 5.94777,64.51472 23.79105,1.98507 -2.97388,-75.43253 2.97388,-65.50721 16.85198,63.52213 v 75.65749 l 25.23168,0.99254 0.54195,-98.48578 c 0,0 1.98263,-77.41759 -10.90423,-87.34297 -12.88681,-9.92535 -14.86936,-11.91037 -14.86936,-11.91037 z"
       fill="#2f2e41"
       id="path54"
       style="stroke-width:0.982625" />
    <path
       d="m 857.40526,132.52664 22.57116,11.91041 2.97388,103.22345 c 0,0 -12.88686,-7.94026 -32.7127,1.98508 -19.82587,9.92534 -32.71272,2.97761 -32.71272,2.97761 l 11.89557,-44.66403 -4.95649,-59.55202 7.08926,-6.44246 z"
       fill="#cbcbcb"
       id="path56"
       style="stroke-width:0.982625" />
    <path
       d="m 831.55558,140.08593 -4.11771,3.35856 c 0,0 -25.77367,12.90297 -26.76496,21.83576 l 17.84332,48.63416 c 0,0 4.95646,10.91785 0.99131,14.88796 -3.96519,3.97014 -7.9304,13.89547 -6.93909,18.85816 0.99128,4.96266 -5.94777,25.80587 1.9826,25.80587 7.93038,0 26.76497,-47.64161 25.77367,-66.49974 -0.99132,-18.85817 -1.67747,-68.25423 -8.76914,-66.88073 z"
       fill="#2f2e41"
       id="path58"
       style="stroke-width:0.982625" />
    <path
       d="m 848.8834,133.64506 9.0796,-1.51275 c 0,0 33.70402,8.93279 38.66046,23.82083 l -13.87815,34.73865 c 0,0 9.91299,63.52214 6.93907,63.52214 h -2.97386 c 0,0 7.93033,5.95521 2.97386,7.94029 -4.95645,1.98506 -16.85202,17.86557 -19.82584,10.91785 -2.97388,-6.94773 -20.81717,-89.32805 -18.83459,-107.19367 1.98263,-17.86561 -3.90112,-30.36169 -2.14055,-32.23334 z"
       fill="#2f2e41"
       id="path60"
       style="stroke-width:0.982625" />
    <path
       d="m 852.82378,93.508558 0.88217,-1.77767 -4.43878,-2.20815 c 0,0 -4.89671,-7.977447 -13.75745,-5.735573 -8.86074,2.241811 -12.84733,3.583495 -12.84733,3.583495 l -4.42756,2.23056 2.22215,2.213766 -3.98648,1.341712 2.66321,1.32489 -3.09875,1.783314 1.66814,9.142028 c 0,0 2.77063,-6.933869 8.09716,-4.28409 5.32649,2.64975 15.06949,-1.369765 15.06949,-1.369765 l 8.46453,16.401995 c 0,0 1.74622,-5.7497 4.85965,-4.21661 8e-5,0 7.95408,-12.683105 -1.37015,-18.429902 z"
       fill="#2f2e41"
       id="path62"
       style="stroke-width:0.982625" />
    <path
       d="m 880.39587,267.67254 a 8.8386674,8.849719 0 0 1 6.31751,-12.00558 l 3.81572,-31.21608 12.43349,10.58776 -5.5296,28.02009 a 8.8865897,8.8977011 0 0 1 -17.03712,4.61384 z"
       fill="#ffb7b7"
       id="path64"
       style="stroke-width:0.982625" />
    <path
       d="m 827.21658,265.52446 a 8.8386674,8.849719 0 0 0 -7.55331,-11.26722 l -7.09997,-30.63499 -11.24223,11.84802 8.46588,27.27507 a 8.8865799,8.8976911 0 0 0 17.42971,2.77912 z"
       fill="#ffb7b7"
       id="path66"
       style="stroke-width:0.982625" />
    <path
       d="m 880.8751,147.86451 c 0,0 12.88678,-4.96272 16.85199,9.92538 3.9652,14.88808 8.92165,44.66398 8.92165,44.66398 0.24648,16.55746 -0.63252,16.55746 0,32.75363 l -2.9739,14.88799 -16.85197,-1.98507 0.73504,-37.89973 -8.66543,-38.52539 z"
       fill="#2f2e41"
       id="path68"
       style="stroke-width:0.982625" />
    <path
       d="m 809.59455,159.32505 -6.11007,0.65437 c 0,0 -5.7855,4.30828 -5.7855,14.23362 0,9.92531 -0.99131,39.70133 -0.99131,39.70133 0,0 -0.56222,0.69663 3.96518,25.80587 2.20673,12.23858 6.02019,18.01392 6.02019,18.01392 l 12.30557,-11.44084 -1.4737,-29.40132 3.96518,-15.88055 z"
       fill="#2f2e41"
       id="path70"
       style="stroke-width:0.982625" />
    <path
       d="M 994.42441,457.42866 H 83.119357 a 0.982016,0.98324379 0 0 1 0,-1.96648 H 994.42441 a 0.982016,0.98324379 0 0 1 0,1.96648 z"
       fill="#3f3d56"
       id="path72"
       style="stroke-width:0.982625" />
    <ellipse
       cx="308.63651"
       cy="143.51715"
       fill="#ffb8b8"
       id="circle74"
       style="stroke-width:0.982625"
       rx="21.631474"
       ry="21.658522" />
    <path
       d="m 300.82655,271.67452 q -0.40868,0 -0.82097,-0.0372 a 9.6903154,9.7024323 0 0 1 -8.69713,-11.56618 9.072405,9.0837496 0 0 1 0.2378,-0.92228 L 259.62,221.34222 a 7.5255239,7.5349338 0 0 1 -0.52356,-8.98103 l 0.0578,-0.0705 28.73754,-28.37169 a 8.3070574,8.3174444 0 0 1 11.66473,11.84537 q -0.054,0.0534 -0.10917,0.10592 l -20.81355,19.81177 22.78568,36.61635 a 9.2214148,9.2329454 0 0 1 1.28517,0.1583 9.6900606,9.7021761 0 0 1 -1.87821,19.21671 z"
       fill="#ffb8b8"
       id="path76"
       style="stroke-width:0.982625" />
    <polygon
       points="277.924,596.776 283.154,554.366 266.926,554.367 266.928,596.776 "
       fill="#ffb8b8"
       id="polygon78"
       transform="matrix(0.98200974,0,0,0.98323769,82.137356,-141.82337)" />
    <path
       d="m 341.50946,441.4201 21.26399,-8.5e-4 h 7.4e-4 a 13.550871,13.567814 0 0 1 13.55125,13.56737 v 0.44149 l -34.81549,9e-4 z"
       fill="#2f2e41"
       id="path80"
       style="stroke-width:0.982625" />
    <polygon
       points="167.089,587.2 193.281,553.436 179.338,545.134 157.641,581.575 "
       fill="#ffb8b8"
       id="polygon82"
       transform="matrix(0.98200974,0,0,0.98323769,82.137356,-141.82337)" />
    <path
       d="m 236.37958,425.55869 18.27075,10.89196 7.4e-4,4.5e-4 a 13.550871,13.567814 0 0 1 4.7107,18.59904 l -2.9e-4,4.3e-4 -0.22529,0.37887 -29.91452,-17.83343 z"
       fill="#2f2e41"
       id="path84"
       style="stroke-width:0.982625" />
    <path
       d="m 357.60893,430.22129 h -12.09085 a 3.9560362,3.9609828 0 0 1 -3.94086,-3.54883 l -12.1893,-114.72252 a 1.3213432,1.3229954 0 0 0 -2.51787,-0.40469 l -21.98971,48.75267 -38.93159,63.56199 a 3.982148,3.9871271 0 0 1 -4.97471,1.55701 l -15.55288,-6.85137 a 3.9644618,3.9694187 0 0 1 -1.80617,-5.66813 l 35.78887,-60.00026 10.97612,-50.55335 c -3.45214,-21.92337 11.34708,-54.51723 11.49716,-54.84452 l 0.0734,-0.15942 40.765,-15.95312 0.20452,0.25047 c 16.07653,52.82332 25.87291,109.67023 18.63961,194.94803 a 3.9900531,3.9950422 0 0 1 -3.95063,3.63578 z"
       fill="#2f2e41"
       id="path86"
       style="stroke-width:0.982625" />
    <path
       d="m 300.30812,252.68172 -0.18984,-0.3996 c -0.0908,-0.19101 -9.15515,-19.33295 -16.14263,-39.79148 a 30.139108,30.176793 0 0 1 2.08981,-24.18385 30.467914,30.506011 0 0 1 19.42922,-14.95918 v 0 a 30.505004,30.543147 0 0 1 35.40678,18.29183 c 5.54259,13.87754 3.77612,28.69013 2.11376,40.33899 l -0.0334,0.23338 -0.21193,0.10142 z"
       fill="#6c63ff"
       id="path88"
       style="stroke-width:0.982625" />
    <path
       d="m 334.86407,131.28269 h -34.34822 v -14.99101 c 7.53903,-2.99889 14.91636,-5.54926 19.37593,0 a 14.972417,14.991139 0 0 1 14.97232,14.99101 z"
       fill="#2f2e41"
       id="path90"
       style="stroke-width:0.982625" />
    <path
       d="m 298.61419,113.64621 c -20.534,0 -26.28153,25.77077 -26.28153,40.30938 0,8.10798 3.66226,11.00793 9.41704,11.98918 l 2.03239,-10.85279 4.76008,11.31981 c 1.61653,0.008 3.31477,-0.0223 5.07534,-0.0561 l 1.61395,-3.32742 3.59897,3.26769 c 14.41454,0.0223 26.06479,2.12538 26.06479,-12.34054 0,-14.5386 -5.04045,-40.30934 -26.28103,-40.30934 z"
       fill="#2f2e41"
       id="path92"
       style="stroke-width:0.982625" />
    <path
       d="m 389.88625,142.48861 q 0.19596,0.35898 0.36187,0.73872 a 9.6903247,9.7024428 0 0 1 -5.96778,13.18724 9.0752931,9.0866399 0 0 1 -0.92239,0.23338 l -17.8299,46.17858 a 7.5254943,7.534904 0 0 1 -7.62064,4.76589 l -0.0899,-0.0186 -38.64503,-11.64829 a 8.3070615,8.317448 0 0 1 4.79041,-15.92841 q 0.0724,0.0223 0.14438,0.0449 l 27.34346,8.78976 21.16921,-37.57655 a 9.2185974,9.2301228 0 0 1 -0.47727,-1.20523 9.6900998,9.7022161 0 0 1 17.74354,-7.56292 z"
       fill="#ffb8b8"
       id="path94"
       style="stroke-width:0.982625" />
    <path
       d="M 733.42459,25.197738 C 718.97795,5.8405564 692.53729,1.1688814 679.39832,10.999274 c -13.13897,9.83039 -16.15713,36.542814 -1.71054,55.899955 13.37214,17.917415 37.59911,22.803967 50.94321,16.091177 a 1.6755346,1.6776295 0 0 0 -0.007,0.636092 l 0.75232,3.724018 a 1.6970602,1.6991821 0 0 0 2.70818,1.002111 l 6.37072,-4.983282 a 1.6971093,1.6992314 0 0 0 -0.31585,-2.87357 l -3.42697,-1.631839 a 1.6792367,1.6813363 0 0 0 -0.37708,-0.118608 c 10.28568,-10.887725 12.4911,-35.591253 -0.9101,-53.547651 z"
       fill="#cccccc"
       id="path96"
       style="stroke-width:0.982625" />
    <path
       d="m 701.82441,17.889396 a 27.920286,27.955197 0 0 1 23.3838,30.563524 c -0.15514,1.631919 2.39134,1.621253 2.5456,0 A 30.528837,30.56701 0 0 0 702.5011,15.431667 c -1.60234,-0.272767 -2.29091,2.182956 -0.67669,2.457729 z"
       fill="#ffffff"
       id="path98"
       style="stroke-width:0.982625" />
    <path
       d="m 251.23716,49.47616 c 12.6303,-20.591309 7.20058,-46.9186566 -6.7761,-55.5130896 -13.97668,-8.5944314 -39.88408,-1.536674 -52.51435,19.0546446 -11.69087,19.05981 -7.2782,43.406734 3.88068,53.343514 a 1.675898,1.6779935 0 0 0 -0.59325,0.227805 l -3.17851,2.075445 a 1.6970602,1.6991821 0 0 0 0.0701,2.889921 l 6.97816,4.08713 a 1.6970995,1.6992214 0 0 0 2.55044,-1.355066 l 0.24889,-3.791357 a 1.6797277,1.6818281 0 0 0 -0.0293,-0.394651 c 13.90414,5.549137 37.64688,-1.522866 49.36316,-20.624145 z"
       fill="#cccccc"
       id="path100"
       style="stroke-width:0.982625" />
    <path
       d="M 246.34903,17.374372 A 27.920286,27.955197 0 0 1 226.61865,50.42041 c -1.572,0.458235 -0.62153,2.823848 0.94019,2.368538 a 30.528829,30.567 0 0 0 21.32122,-35.692657 c -0.33873,-1.591675 -2.87224,-1.325374 -2.53103,0.277968 z"
       fill="#ffffff"
       id="path102"
       style="stroke-width:0.982625" />
  </g>
</svg>
