<?xml version="1.0" encoding="UTF-8" standalone="no"?>
<svg
   xmlns:dc="http://purl.org/dc/elements/1.1/"
   xmlns:cc="http://creativecommons.org/ns#"
   xmlns:rdf="http://www.w3.org/1999/02/22-rdf-syntax-ns#"
   xmlns:svg="http://www.w3.org/2000/svg"
   xmlns="http://www.w3.org/2000/svg"
   xmlns:sodipodi="http://sodipodi.sourceforge.net/DTD/sodipodi-0.dtd"
   xmlns:inkscape="http://www.inkscape.org/namespaces/inkscape"
   id="b60f32bd-2d4f-44b2-aae8-23a042c308d4"
   data-name="Layer 1"
   width="876.50122"
   height="360"
   viewBox="0 0 876.50121 360"
   version="1.1"
   sodipodi:docname="larisse_login_img.svg"
   inkscape:version="1.0.1 (1.0.1+r74)">
  <metadata
     id="metadata207">
    <rdf:RDF>
      <cc:Work
         rdf:about="">
        <dc:format>image/svg+xml</dc:format>
        <dc:type
           rdf:resource="http://purl.org/dc/dcmitype/StillImage" />
        <dc:title>choosing_house</dc:title>
      </cc:Work>
    </rdf:RDF>
  </metadata>
  <defs
     id="defs205" />
  <sodipodi:namedview
     pagecolor="#ffffff"
     bordercolor="#666666"
     borderopacity="1"
     objecttolerance="10"
     gridtolerance="10"
     guidetolerance="10"
     inkscape:pageopacity="0"
     inkscape:pageshadow="2"
     inkscape:window-width="1920"
     inkscape:window-height="1043"
     id="namedview203"
     showgrid="false"
     inkscape:zoom="0.36304413"
     inkscape:cx="438.25061"
     inkscape:cy="325.02936"
     inkscape:window-x="1920"
     inkscape:window-y="0"
     inkscape:window-maximized="1"
     inkscape:current-layer="b60f32bd-2d4f-44b2-aae8-23a042c308d4"
     inkscape:document-rotation="0" />
  <title
     id="title2">choosing_house</title>
  <rect
     x="591.9057"
     y="89.170074"
     width="171.66162"
     height="256.2485"
     id="rect10"
     style="fill:#e6e6e6" />
  <rect
     x="601.07208"
     y="102.85324"
     width="153.32883"
     height="228.88216"
     id="rect12"
     style="fill:#ffffff" />
  <rect
     x="701.39508"
     y="265.71683"
     width="7.4214902"
     height="25.68977"
     id="rect14"
     style="fill:#3f3d56" />
  <polygon
     points="826.808,258.178 808.335,235.97 772.369,235.97 750.39,257.378 750.834,257.663 750.675,257.663 750.675,302.192 826.603,302.192 826.603,257.663 "
     id="polygon16"
     transform="translate(-112.93394,29.461675)"
     style="fill:#3f3d56" />
  <polygon
     points="826.603,257.092 808.62,235.684 786.07,262.122 786.07,302.192 826.603,302.192 "
     id="polygon18"
     transform="translate(-112.93394,29.461675)"
     style="fill:#6c63ff" />
  <rect
     x="689.40656"
     y="309.49429"
     width="8.2778196"
     height="7.3166399"
     id="rect20"
     style="fill:#3f3d56" />
  <rect
     x="689.40656"
     y="296.82999"
     width="8.2778196"
     height="7.2006102"
     id="rect22"
     style="fill:#3f3d56" />
  <rect
     x="689.40656"
     y="309.49429"
     width="8.2778196"
     height="7.3166399"
     id="rect24"
     style="fill:#ffffff" />
  <rect
     x="689.40656"
     y="296.82999"
     width="8.2778196"
     height="7.2006102"
     id="rect26"
     style="fill:#ffffff" />
  <path
     d="m 667.51501,330.34824 c 0,0 0.17746,-3.71838 3.81534,-3.28617"
     id="path28"
     inkscape:connector-curvature="0"
     style="fill:#e6e6e6" />
  <circle
     cx="666.48712"
     cy="324.98901"
     r="1.82073"
     id="circle30"
     style="fill:#6c63ff" />
  <rect
     x="666.19086"
     y="328.05502"
     width="0.51394999"
     height="3.59764"
     id="rect32"
     style="fill:#e6e6e6" />
  <rect
     x="356.80389"
     y="89.170074"
     width="171.66162"
     height="256.2485"
     id="rect34"
     style="fill:#e6e6e6" />
  <rect
     x="365.97028"
     y="102.85324"
     width="153.32883"
     height="228.88216"
     id="rect36"
     style="fill:#ffffff" />
  <path
     d="m 646.26216,188.07974 4.41817,-3.53369 c -3.43228,-0.37868 -4.84254,1.49322 -5.41971,2.97483 a 7.52571,7.52571 0 0 0 -5.60049,0.34578 l 8.83994,3.20921 a 6.68937,6.68937 0 0 0 -2.23791,-2.99613 z"
     id="path38"
     inkscape:connector-curvature="0"
     style="fill:#3f3d56" />
  <path
     d="m 455.48473,181.16035 4.41816,-3.53369 c -3.43227,-0.37867 -4.84253,1.49322 -5.4197,2.97484 a 7.52571,7.52571 0 0 0 -5.6005,0.34577 l 8.83994,3.20921 a 6.68936,6.68936 0 0 0 -2.2379,-2.99613 z"
     id="path40"
     inkscape:connector-curvature="0"
     style="fill:#3f3d56" />
  <path
     d="m 706.39297,154.69992 4.41817,-3.53369 c -3.43228,-0.37868 -4.84254,1.49322 -5.41971,2.97483 a 7.52574,7.52574 0 0 0 -5.6005,0.34578 l 8.83995,3.20921 a 6.68944,6.68944 0 0 0 -2.23791,-2.99613 z"
     id="path42"
     inkscape:connector-curvature="0"
     style="fill:#3f3d56" />
  <rect
     x="471.8909"
     y="240.3439"
     width="7.4214902"
     height="25.68977"
     id="rect44"
     style="fill:#3f3d56" />
  <rect
     x="471.8909"
     y="237.7749"
     width="7.4214902"
     height="25.68977"
     id="rect46"
     style="fill:#3f3d56" />
  <polygon
     points="603.461,241.079 578.129,210.991 528.425,210.991 498.051,240.577 498.664,240.971 498.445,240.971 498.445,302.509 603.375,302.509 603.375,240.971 "
     id="polygon48"
     transform="translate(-112.93394,29.461675)"
     style="fill:#3f3d56" />
  <polygon
     points="603.375,240.182 578.523,210.597 547.36,247.133 547.36,302.509 603.375,302.509 "
     id="polygon50"
     transform="translate(-112.93394,29.461675)"
     style="fill:#6c63ff" />
  <rect
     x="449.01468"
     y="300.38339"
     width="11.43973"
     height="11.07474"
     id="rect52"
     style="fill:#3f3d56" />
  <rect
     x="449.01468"
     y="283.845"
     width="11.43973"
     height="11.07471"
     id="rect54"
     style="fill:#3f3d56" />
  <rect
     x="449.01468"
     y="300.38339"
     width="11.43973"
     height="11.07474"
     id="rect56"
     style="fill:#ffffff" />
  <rect
     x="449.01468"
     y="283.845"
     width="11.43973"
     height="11.07471"
     id="rect58"
     style="fill:#ffffff" />
  <rect
     x="465.74722"
     y="300.38339"
     width="11.43973"
     height="11.07474"
     id="rect60"
     style="fill:#3f3d56" />
  <rect
     x="465.74722"
     y="283.845"
     width="11.43973"
     height="11.07471"
     id="rect62"
     style="fill:#3f3d56" />
  <rect
     x="465.74722"
     y="300.38339"
     width="11.43973"
     height="11.07474"
     id="rect64"
     style="fill:#ffffff" />
  <rect
     x="465.74722"
     y="283.845"
     width="11.43973"
     height="11.07471"
     id="rect66"
     style="fill:#ffffff" />
  <circle
     cx="280.49979"
     cy="73.500076"
     r="44.038391"
     id="circle68"
     style="fill:#ff6584" />
  <rect
     x="121.7021"
     y="89.170074"
     width="171.66162"
     height="256.2485"
     id="rect70"
     style="fill:#e6e6e6" />
  <rect
     x="130.86848"
     y="102.85324"
     width="153.32883"
     height="228.88216"
     id="rect72"
     style="fill:#ffffff" />
  <polygon
     points="385.454,227.104 354.54,190.288 293.762,190.288 256.619,226.466 257.37,226.948 257.102,226.948 257.102,302.197 385.411,302.197 385.411,226.948 "
     id="polygon74"
     transform="translate(-112.93394,29.461675)"
     style="fill:#3f3d56" />
  <path
     d="m 234.91726,177.72848 4.1718,-3.33664 c -3.24088,-0.35756 -4.5725,1.41 -5.11748,2.809 a 7.10606,7.10606 0 0 0 -5.2882,0.32649 l 8.347,3.03025 a 6.31633,6.31633 0 0 0 -2.11312,-2.8291 z"
     id="path76"
     inkscape:connector-curvature="0"
     style="fill:#3f3d56" />
  <rect
     x="246.91318"
     y="216.30254"
     width="7.0076399"
     height="24.257219"
     id="rect78"
     style="fill:#3f3d56" />
  <polygon
     points="385.411,225.983 355.022,189.806 316.915,234.482 316.915,302.197 385.411,302.197 "
     id="polygon80"
     transform="translate(-112.93394,29.461675)"
     style="fill:#6c63ff" />
  <path
     d="m 173.14607,330.42624 c 0,0 0.16756,-3.511 3.60258,-3.10292"
     id="path82"
     inkscape:connector-curvature="0"
     style="fill:#e6e6e6" />
  <circle
     cx="172.17551"
     cy="325.36588"
     r="1.7192"
     id="circle84"
     style="fill:#6c63ff" />
  <rect
     x="171.89578"
     y="328.26089"
     width="0.48528999"
     height="3.3970301"
     id="rect86"
     style="fill:#e6e6e6" />
  <path
     d="m 188.50898,330.42624 c 0,0 0.16756,-3.511 3.60258,-3.10292"
     id="path88"
     inkscape:connector-curvature="0"
     style="fill:#e6e6e6" />
  <circle
     cx="187.53842"
     cy="325.36588"
     r="1.7192"
     id="circle90"
     style="fill:#6c63ff" />
  <rect
     x="187.25867"
     y="328.26089"
     width="0.48528999"
     height="3.3970301"
     id="rect92"
     style="fill:#e6e6e6" />
  <path
     d="m 152.12315,330.42624 c 0,0 0.16756,-3.511 3.60258,-3.10292"
     id="path94"
     inkscape:connector-curvature="0"
     style="fill:#e6e6e6" />
  <circle
     cx="151.15259"
     cy="325.36588"
     r="1.7192"
     id="circle96"
     style="fill:#6c63ff" />
  <rect
     x="150.87283"
     y="328.26089"
     width="0.48528999"
     height="3.3970301"
     id="rect98"
     style="fill:#e6e6e6" />
  <rect
     x="212.78757"
     y="272.81018"
     width="13.98868"
     height="14.30337"
     id="rect100"
     style="fill:#3f3d56" />
  <rect
     x="212.78757"
     y="292.27255"
     width="13.98868"
     height="14.30339"
     id="rect102"
     style="fill:#3f3d56" />
  <rect
     x="212.78757"
     y="272.81018"
     width="13.98868"
     height="14.30337"
     id="rect104"
     style="fill:#ffffff" />
  <rect
     x="212.78757"
     y="292.27255"
     width="13.98868"
     height="14.30339"
     id="rect106"
     style="fill:#ffffff" />
  <rect
     x="232.13388"
     y="272.81018"
     width="13.98868"
     height="14.30337"
     id="rect108"
     style="fill:#3f3d56" />
  <rect
     x="232.13388"
     y="292.27255"
     width="13.98868"
     height="14.30339"
     id="rect110"
     style="fill:#3f3d56" />
  <rect
     x="232.13388"
     y="272.81018"
     width="13.98868"
     height="14.30337"
     id="rect112"
     style="fill:#ffffff" />
  <rect
     x="232.13388"
     y="292.27255"
     width="13.98868"
     height="14.30339"
     id="rect114"
     style="fill:#ffffff" />
  <rect
     x="251.48019"
     y="272.81018"
     width="13.98868"
     height="14.30337"
     id="rect116"
     style="fill:#3f3d56" />
  <rect
     x="251.48019"
     y="292.27255"
     width="13.98868"
     height="14.30339"
     id="rect118"
     style="fill:#3f3d56" />
  <rect
     x="251.48019"
     y="272.81018"
     width="13.98868"
     height="14.30337"
     id="rect120"
     style="fill:#ffffff" />
  <rect
     x="251.48019"
     y="292.27255"
     width="13.98868"
     height="14.30339"
     id="rect122"
     style="fill:#ffffff" />
  <path
     d="M 762.10131,346.72249 H 121.96614 c 0,0 129.96952,-31.29723 321.39936,-30.94217 q 1.6114,0 3.22275,0.009 5.72811,0.0208 11.52242,0.0784 4.53618,0.0484 9.10905,0.1199 c 1.31709,0.0185 2.63413,0.0415 3.95854,0.0646 0.52979,0.009 1.05217,0.0184 1.5746,0.0277 q 1.82109,0.0346 3.6642,0.0738 3.45453,0.0692 6.93115,0.1568 3.04611,0.0761 6.12172,0.166 c 0.78,0.0185 1.57459,0.0415 2.36189,0.0692 q 5.57358,0.15907 11.19135,0.3689 c 0.86822,0.0323 1.73644,0.0646 2.612,0.0969 1.19934,0.0415 2.406,0.0922 3.60538,0.13833 q 2.38392,0.0969 4.76789,0.19829 c 2.06756,0.0876 4.12776,0.17985 6.19532,0.27667 q 6.48965,0.29742 13.05286,0.65483 4.87833,0.25593 9.786,0.55334 c 1.39061,0.083 2.78862,0.17064 4.18659,0.25823 q 3.21175,0.1937 6.43814,0.41042 c 1.3686,0.0922 2.74452,0.18446 4.11307,0.2767 1.65553,0.11066 3.30368,0.226 4.9592,0.34585 1.64816,0.11987 3.31105,0.23977 4.96657,0.36428 q 2.49433,0.18678 4.98866,0.37814 c 1.67021,0.1291 3.3331,0.25823 5.00335,0.39657 1.64815,0.12913 3.29631,0.26746 4.95183,0.4058 q 10.57329,0.87847 21.30106,1.91372 c 1.36856,0.1291 2.75184,0.26285 4.12776,0.40118 q 2.13009,0.20751 4.27492,0.42886 2.98,0.29742 5.982,0.6179 2.5716,0.26977 5.15051,0.54875 c 1.5525,0.166 3.11973,0.33665 4.6796,0.51188 l 0.48565,0.0553 c 1.72171,0.18905 3.45084,0.38734 5.17256,0.58562 1.72913,0.19829 3.46557,0.40119 5.19466,0.60409 q 2.60474,0.30435 5.20939,0.62255 c 1.74381,0.2121 3.4803,0.42423 5.22411,0.641 1.36119,0.17062 2.71506,0.34124 4.07625,0.51185 0.67691,0.0876 1.35387,0.17062 2.03078,0.25824 q 2.18528,0.28358 4.38527,0.5718 2.62676,0.34585 5.2609,0.69632 c 0.19867,0.0277 0.39,0.0553 0.58862,0.0784 q 4.08363,0.55337 8.17459,1.12517 c 0.36789,0.0507 0.74315,0.10606 1.11841,0.1568 q 2.14115,0.29743 4.28229,0.6087 c 1.42743,0.20749 2.85486,0.41039 4.28965,0.62252 0.0588,0.005 0.11771,0.0138 0.17658,0.0231 2.02342,0.29513 4.03947,0.59485 6.07025,0.90383 q 1.512,0.22135 3.02407,0.45652 c 1.38329,0.20752 2.75921,0.41962 4.14249,0.63637 0.905,0.143 1.81006,0.2859 2.72243,0.42885 0.66954,0.0968 1.33913,0.2029 2.00868,0.31357 q 2.11905,0.32512 4.24551,0.67327 1.97556,0.31815 3.95118,0.64095 a 0.92034,0.92034 0 0 1 0.11038,0.0185 c 0.31638,0.0507 0.6254,0.10144 0.94179,0.15219 0.96388,0.15677 1.92776,0.31818 2.899,0.47957 0.9933,0.166 1.994,0.332 2.99466,0.50262 0.87559,0.14757 1.75854,0.29513 2.63413,0.44731 a 0.33246,0.33246 0 0 1 0.0736,0.009 c 0.12508,0.0184 0.25019,0.0415 0.37526,0.0645 1.01539,0.17062 2.03078,0.34127 3.04617,0.52109 1.01539,0.17523 2.03074,0.35047 3.0535,0.53031 0.103,0.0138 0.206,0.0323 0.30906,0.0507 q 1.18088,0.20062 2.36185,0.415 c 0,0 0,-0.005 0.007,0 0.44882,0.0738 0.89764,0.15677 1.34651,0.23518 q 1.799,0.31815 3.598,0.64095 c 0.77262,0.13837 1.55255,0.2767 2.32512,0.41965 q 3.23378,0.58794 6.48228,1.18512 c 2.16322,0.40119 4.3338,0.807 6.497,1.21738 1.30231,0.24441 2.59731,0.49342 3.89967,0.74706 q 1.83207,0.34585 3.6642,0.70552 c 1.82477,0.35511 3.65687,0.71016 5.48161,1.07448 z"
     id="path124"
     inkscape:connector-curvature="0"
     style="fill:#e6e6e6" />
  <path
     d="M 121.96614,346.72249"
     stroke-miterlimit="10"
     id="path126"
     inkscape:connector-curvature="0"
     style="fill:none;stroke:#3f3d56;stroke-width:2;stroke-miterlimit:10" />
  <path
     d="m 761.90553,347.70293 c -1.62305,-0.32373 -3.252,-0.64062 -4.877,-0.95654 l -0.60058,-0.1167 q -1.82959,-0.36034 -3.6582,-0.7041 c -1.30567,-0.25488 -2.59864,-0.50342 -3.89844,-0.74707 q -3.24609,-0.616 -6.49512,-1.21729 -2.84033,-0.5266 -5.67676,-1.03906 l -0.80176,-0.14551 c -0.66015,-0.12207 -1.32421,-0.24023 -1.98339,-0.35839 l -0.33887,-0.0605 q -1.63623,-0.29591 -3.26953,-0.583 l -0.50684,-0.0893 v 0.0102 l -1.17871,-0.21436 -0.0645,-0.0117 -0.11328,-0.0205 q -1.08546,-0.19629 -2.17285,-0.38086 c -0.10352,-0.0186 -0.1875,-0.0342 -0.27247,-0.0454 l -3.09179,-0.53613 c -0.96875,-0.17188 -1.9336,-0.334 -2.89746,-0.4961 l -0.14551,-0.0244 c -0.12793,-0.0234 -0.24219,-0.0449 -0.35547,-0.0615 -0.87012,-0.14746 -1.64844,-0.27832 -2.42285,-0.4082 l -7.2461,-1.20361 q -1.9746,-0.3252 -3.94824,-0.64014 -2.127,-0.34644 -4.2373,-0.67236 c -0.67481,-0.11133 -1.33789,-0.21631 -2,-0.312 l -2.73633,-0.43116 c -1.37988,-0.2163 -2.75391,-0.42773 -4.13477,-0.63525 -1.00976,-0.15674 -2.01464,-0.30859 -3.0205,-0.45605 -2.03418,-0.30958 -4.04883,-0.60889 -6.07032,-0.90333 l -0.17773,-0.0234 q -1.37988,-0.20434 -2.75195,-0.40039 l -1.53516,-0.22168 q -2.13867,-0.31128 -4.27637,-0.60791 l -1.11718,-0.15674 q -4.09717,-0.57421 -8.17188,-1.125 c -0.15527,-0.0176 -0.32227,-0.041 -0.49414,-0.0649 l -15.83789,-2.0503 c -1.74219,-0.2163 -3.47852,-0.42822 -5.22168,-0.64062 q -2.60157,-0.31786 -5.2041,-0.62207 c -1.72852,-0.20264 -3.46485,-0.40576 -5.19239,-0.60352 -1.71972,-0.19824 -3.44824,-0.39648 -5.168,-0.585 l -0.49024,-0.0561 c -1.55566,-0.17432 -3.12207,-0.34521 -4.67187,-0.51123 q -2.417,-0.26514 -4.81641,-0.51367 l -0.332,-0.0347 q -3.00147,-0.31786 -5.97754,-0.61719 -2.14306,-0.22119 -4.27246,-0.4292 c -1.376,-0.13818 -2.75781,-0.27148 -4.124,-0.40039 -6.999,-0.67724 -14.16114,-1.32031 -21.291,-1.9126 -1.68555,-0.14111 -3.31641,-0.27783 -4.94629,-0.40576 -1.67383,-0.13867 -3.334,-0.26709 -5.00293,-0.39648 q -2.4917,-0.19337 -4.98535,-0.37793 c -1.4834,-0.11133 -2.97266,-0.21924 -4.45117,-0.32666 l -0.51367,-0.0371 c -1.65332,-0.12012 -3.29981,-0.23535 -4.95313,-0.34522 l -4.11426,-0.27734 q -3.21825,-0.21387 -6.43164,-0.41016 l -0.373,-0.0234 q -1.91016,-0.11938 -3.8125,-0.23487 -4.90577,-0.2893 -9.77832,-0.55273 -6.55518,-0.35962 -13.04688,-0.6543 c -2.06641,-0.0967 -4.125,-0.189 -6.19141,-0.27685 q -2.16357,-0.0937 -4.32519,-0.18018 l -1.65723,-0.0654 c -0.79492,-0.0317 -1.59082,-0.063 -2.38281,-0.0903 l -2.61523,-0.0967 q -5.61329,-0.208 -11.18165,-0.36914 c -0.791,-0.0273 -1.58105,-0.0508 -2.35742,-0.0688 -2.05664,-0.0601 -4.09375,-0.11572 -6.123,-0.166 q -3.47314,-0.0828 -6.92676,-0.15674 l -5.23633,-0.10108 q -1.98486,-0.0351 -3.9541,-0.0649 c -3.05469,-0.0503 -6.084,-0.0874 -9.10645,-0.11963 q -5.792,-0.0623 -11.51562,-0.0786 l -0.293,-10e-4 q -1.46339,-0.006 -2.92578,-0.008 c -1.06153,-0.002 -2.13281,-0.003 -3.19141,-0.003 -187.40771,0 -316.68262,30.60645 -317.97363,30.91748 l -0.46826,-1.94433 c 1.29345,-0.31153 130.81933,-30.97315 318.44189,-30.97315 1.07129,0 2.11817,0.001 3.19336,0.003 q 1.46339,0 2.93164,0.008 l 0.293,10e-4 q 5.73046,0.0212 11.5293,0.0786 c 3.02636,0.0322 6.05957,0.0693 9.11523,0.11963 q 1.97314,0.0278 3.959,0.0649 l 5.24414,0.10108 q 3.45263,0.0696 6.93261,0.15771 3.04982,0.0754 6.127,0.166 c 0.77832,0.0181 1.57617,0.0415 2.36816,0.0688 q 5.56641,0.15893 11.19238,0.36914 l 2.61231,0.0967 c 0.793,0.0278 1.59277,0.0591 2.39062,0.0908 l 1.66016,0.0659 q 2.165,0.0879 4.32813,0.18018 c 2.06933,0.0879 4.12988,0.18018 6.19921,0.27686 q 6.49367,0.29736 13.06153,0.65527 4.87793,0.25635 9.78906,0.55371 1.9043,0.11352 3.81934,0.23486 l 0.37109,0.0234 q 3.2124,0.1941 6.44238,0.41065 l 4.11426,0.27734 c 1.65625,0.11035 3.30664,0.22559 4.96387,0.3457 l 0.51367,0.0376 c 1.48047,0.10742 2.97168,0.21533 4.45605,0.32715 q 2.49464,0.18676 4.99024,0.37793 c 1.67285,0.12939 3.33691,0.25879 5.00879,0.397 q 2.44482,0.19189 4.90527,0.40234 c 7.18555,0.59668 14.35645,1.24122 21.36231,1.91846 1.36718,0.12891 2.75293,0.26319 4.13085,0.40137 1.41895,0.13867 2.84766,0.28174 4.27735,0.42969 q 2.978,0.29736 5.98535,0.61767 l 0.33105,0.0352 q 2.40675,0.25269 4.82325,0.51416 c 1.55078,0.166 3.11914,0.33691 4.68164,0.51221 l 0.4873,0.0557 c 1.71875,0.189 3.4502,0.38721 5.17383,0.58545 1.72852,0.19873 3.46582,0.40185 5.19629,0.60449 q 2.60742,0.30469 5.21387,0.623 c 1.74511,0.2124 3.48144,0.42431 5.22656,0.6416 l 15.86914,2.0542 c 0.15527,0.0215 0.30664,0.043 0.46387,0.061 2.74414,0.37159 5.46777,0.74512 8.19922,1.12842 l 1.11328,0.15576 q 2.15039,0.29883 4.292,0.61035 l 1.5332,0.22168 q 1.377,0.1985 2.75977,0.40137 c 0.0244,0.008 0.10058,0.0112 0.18554,0.0244 q 3.02052,0.44018 6.06446,0.90283 1.50879,0.22046 3.02734,0.457 c 1.37988,0.207 2.75781,0.41943 4.14356,0.63672 l 2.72265,0.4292 c 0.66407,0.0957 1.34082,0.20263 2.01758,0.31494 q 2.105,0.323 4.24219,0.67285 1.97607,0.31714 3.95312,0.64063 a 1.63215,1.63215 0 0 1 0.19043,0.0351 l 7.06348,1.16943 c 0.749,0.126 1.50195,0.25293 2.25,0.38233 l 0.18555,0.0293 c 0.085,0.0112 0.2207,0.0356 0.35742,0.061 l 0.12988,0.0215 c 0.9707,0.16357 1.94043,0.32666 2.91113,0.49853 l 3.05176,0.53027 c 0.0723,0.009 0.18653,0.0288 0.30176,0.0493 q 1.0122,0.17212 2.02051,0.35352 l 0.20605,-0.11426 0.33594,0.20849 c 0.23144,0.0391 0.46191,0.0801 0.69336,0.1211 l 0.7959,0.14062 q 1.63623,0.29 3.27343,0.584 l 0.3379,0.0601 c 0.66308,0.11865 1.33007,0.23779 1.99121,0.35986 l 0.79882,0.145 q 2.83742,0.51636 5.68457,1.04 c 2.16407,0.40185 4.33692,0.80762 6.501,1.21875 1.30176,0.24414 2.60059,0.49365 3.9043,0.748 1.21777,0.2295 2.44238,0.46534 3.666,0.70557 l 0.59766,0.1167 c 1.62793,0.31641 3.26074,0.63379 4.88574,0.9585 z"
     id="path128"
     inkscape:connector-curvature="0"
     style="fill:#3f3d56" />
  <circle
     cx="562.25323"
     cy="121.4353"
     r="75.395561"
     id="circle130"
     style="fill:#6c63ff" />
  <path
     d="M 618.33712,71.076975 A 75.40144,75.40144 0 0 1 492.70583,150.87343 75.40206,75.40206 0 1 0 618.33712,71.076975 Z"
     id="path132"
     inkscape:connector-curvature="0"
     style="opacity:0.2" />
  <polygon
     points="675.601,91.974 679.33,305.732 671.459,305.732 675.394,91.974 "
     id="polygon134"
     transform="translate(-112.93394,29.461675)"
     style="fill:#3f3d56" />
  <rect
     x="475.17471"
     y="-399.0321"
     width="3.7283499"
     height="14.08488"
     transform="rotate(62.23413)"
     id="rect136"
     style="fill:#3f3d56" />
  <path
     d="m 382.25052,337.00358 c 0,0 0.31844,-6.67254 6.84653,-5.897"
     id="path138"
     inkscape:connector-curvature="0"
     style="fill:#3f3d56" />
  <circle
     cx="380.40598"
     cy="327.38657"
     r="3.2672601"
     id="circle140"
     style="fill:#6c63ff" />
  <rect
     x="379.87436"
     y="332.88846"
     width="0.92227"
     height="6.4558902"
     id="rect142"
     style="fill:#3f3d56" />
  <path
     d="m 501.22333,338.38702 c 0,0 0.31844,-6.67255 6.84653,-5.897"
     id="path144"
     inkscape:connector-curvature="0"
     style="fill:#3f3d56" />
  <circle
     cx="499.37881"
     cy="328.76999"
     r="3.2672601"
     id="circle146"
     style="fill:#6c63ff" />
  <rect
     x="498.8472"
     y="334.27185"
     width="0.92227"
     height="6.4558902"
     id="rect148"
     style="fill:#3f3d56" />
  <path
     d="m 305.24099,326.85861 c 0,0 0.31844,-6.67254 6.84652,-5.897"
     id="path150"
     inkscape:connector-curvature="0"
     style="fill:#3f3d56" />
  <circle
     cx="303.39645"
     cy="317.24161"
     r="3.2672601"
     id="circle152"
     style="fill:#6c63ff" />
  <rect
     x="302.86484"
     y="322.74347"
     width="0.92227"
     height="6.4558902"
     id="rect154"
     style="fill:#3f3d56" />
  <path
     d="m 355.50466,318.09702 c 0,0 0.31845,-6.67255 6.84653,-5.897"
     id="path156"
     inkscape:connector-curvature="0"
     style="fill:#3f3d56" />
  <circle
     cx="353.66016"
     cy="308.48004"
     r="3.2672601"
     id="circle158"
     style="fill:#6c63ff" />
  <rect
     x="353.12854"
     y="313.98193"
     width="0.92227"
     height="6.4558902"
     id="rect160"
     style="fill:#3f3d56" />
  <path
     d="m 481.39453,330.54769 c 0,0 0.31844,-6.67254 6.84653,-5.897"
     id="path162"
     inkscape:connector-curvature="0"
     style="fill:#3f3d56" />
  <circle
     cx="479.55002"
     cy="320.93069"
     r="3.2672601"
     id="circle164"
     style="fill:#6c63ff" />
  <rect
     x="479.01834"
     y="326.43256"
     width="0.92227"
     height="6.4558902"
     id="rect166"
     style="fill:#3f3d56" />
  <path
     d="m 389.92447,47.660765 4.24506,-3.39524 c -3.2978,-0.36383 -4.65281,1.43472 -5.20736,2.85829 a 7.23088,7.23088 0 0 0 -5.38107,0.33222 l 8.49359,3.08348 a 6.42733,6.42733 0 0 0 -2.15022,-2.87875 z"
     id="path168"
     inkscape:connector-curvature="0"
     style="fill:#3f3d56" />
  <path
     d="m 454.48336,82.24588 4.24506,-3.39524 c -3.2978,-0.363825 -4.65281,1.43472 -5.20736,2.85829 a 7.23088,7.23088 0 0 0 -5.38107,0.33222 l 8.49359,3.08348 a 6.42733,6.42733 0 0 0 -2.15022,-2.87875 z"
     id="path170"
     inkscape:connector-curvature="0"
     style="fill:#3f3d56" />
  <path
     d="m 384.85198,111.75853 4.24507,-3.39524 c -3.2978,-0.36384 -4.65281,1.43471 -5.20736,2.85828 a 7.23085,7.23085 0 0 0 -5.38107,0.33223 l 8.49359,3.08347 a 6.42729,6.42729 0 0 0 -2.15023,-2.87874 z"
     id="path172"
     inkscape:connector-curvature="0"
     style="fill:#3f3d56" />
</svg>
