<?xml version="1.0" encoding="UTF-8" standalone="no"?>
<svg
   xmlns:dc="http://purl.org/dc/elements/1.1/"
   xmlns:cc="http://creativecommons.org/ns#"
   xmlns:rdf="http://www.w3.org/1999/02/22-rdf-syntax-ns#"
   xmlns:svg="http://www.w3.org/2000/svg"
   xmlns="http://www.w3.org/2000/svg"
   xmlns:sodipodi="http://sodipodi.sourceforge.net/DTD/sodipodi-0.dtd"
   xmlns:inkscape="http://www.inkscape.org/namespaces/inkscape"
   data-name="Layer 1"
   width="930"
   height="480"
   viewBox="0 0 930 480"
   version="1.1"
   id="svg110"
   sodipodi:docname="undraw_gift_re_qr17.svg"
   inkscape:version="1.0.1 (1.0.1+r74)">
  <metadata
     id="metadata116">
    <rdf:RDF>
      <cc:Work
         rdf:about="">
        <dc:format>image/svg+xml</dc:format>
        <dc:type
           rdf:resource="http://purl.org/dc/dcmitype/StillImage" />
        <dc:title></dc:title>
      </cc:Work>
    </rdf:RDF>
  </metadata>
  <defs
     id="defs114" />
  <sodipodi:namedview
     pagecolor="#ffffff"
     bordercolor="#666666"
     borderopacity="1"
     objecttolerance="10"
     gridtolerance="10"
     guidetolerance="10"
     inkscape:pageopacity="0"
     inkscape:pageshadow="2"
     inkscape:window-width="1878"
     inkscape:window-height="1016"
     id="namedview112"
     showgrid="false"
     inkscape:zoom="0.86772068"
     inkscape:cx="465"
     inkscape:cy="304.93677"
     inkscape:window-x="42"
     inkscape:window-y="27"
     inkscape:window-maximized="1"
     inkscape:current-layer="svg110" />
  <path
     id="f5877e54-26d9-4110-bb17-7d90037dcb2b-191"
     data-name="Path 438"
     d="m 43.265389,429.27116 a 24.21462,24.21462 0 0 0 23.38269,-4.11877 c 8.18977,-6.87442 10.758,-18.196 12.8467,-28.68191 l 6.17973,-31.01657 -12.93771,8.90834 c -9.30465,6.40642 -18.81826,13.01867 -25.26011,22.29786 -6.44185,9.27919 -9.25223,21.94707 -4.07792,31.988"
     fill="#e6e6e6" />
  <path
     id="af7e5462-cb8c-4c3a-a84b-026a28a01614-192"
     data-name="Path 439"
     d="m 45.263089,468.98172 c -1.62839,-11.86369 -3.30382,-23.88078 -2.15884,-35.87167 1.01467,-10.64932 4.26373,-21.04881 10.87831,-29.57938 a 49.20592,49.20592 0 0 1 12.62466,-11.44042 c 1.26215,-0.79648 2.42409,1.20354 1.16733,1.997 a 46.77945,46.77945 0 0 0 -18.50446,22.32562 c -4.02858,10.24607 -4.67545,21.41582 -3.98154,32.3003 0.41944,6.58218 1.31074,13.1212 2.20588,19.65251 a 1.19817,1.19817 0 0 1 -0.808,1.42251 1.16348,1.16348 0 0 1 -1.42253,-0.808 z"
     fill="#f2f2f2" />
  <path
     id="b74da307-8ad0-4d1b-99e4-dedad26aca71-193"
     data-name="Path 442"
     d="m 56.984119,449.94525 a 17.82513,17.82513 0 0 0 15.53141,8.01862 c 7.8644,-0.37318 14.41806,-5.85973 20.31713,-11.07027 l 17.452001,-15.4088 -11.549871,-0.55281 c -8.3062,-0.39784 -16.82672,-0.771 -24.73814,1.79338 -7.91142,2.56438 -15.20757,8.72639 -16.654,16.91541"
     fill="#e6e6e6" />
  <path
     id="eea67ff0-2845-4236-af55-5d249be779f1-194"
     data-name="Path 443"
     d="m 40.660109,475.80141 c 7.83972,-13.87142 16.93234,-29.28794 33.1808,-34.21552 a 37.02609,37.02609 0 0 1 13.95545,-1.44105 c 1.48189,0.128 1.11179,2.41174 -0.367,2.28454 a 34.39833,34.39833 0 0 0 -22.27164,5.89215 c -6.27994,4.27453 -11.16975,10.21755 -15.30781,16.51907 -2.53511,3.86051 -4.80577,7.88445 -7.07642,11.903 -0.72556,1.28451 -2.84739,0.35697 -2.11338,-0.94219 z"
     fill="#f2f2f2" />
  <rect
     x="243.80574"
     y="182.95358"
     width="344"
     height="293"
     fill="#ffffff"
     id="rect6" />
  <path
     d="m 588.80575,476.95361 h -346 v -295 h 346 z m -344,-2 h 342 v -291 h -342 z"
     fill="#3f3d56"
     id="path8" />
  <rect
     x="372.80576"
     y="239.9536"
     width="86"
     height="236"
     fill="#6c63ff"
     id="rect10" />
  <rect
     x="372.80576"
     y="239.9536"
     width="86"
     height="236"
     fill="#6c63ff"
     id="rect12" />
  <polygon
     points="242.602,336.968 242.602,384.506 585.602,406.468 584.591,347.81 "
     opacity="0.2"
     id="polygon14"
     transform="translate(2.2033891,-132.51452)" />
  <rect
     x="223.80574"
     y="155.95358"
     width="384"
     height="84"
     fill="#ffffff"
     id="rect16" />
  <path
     d="m 608.80575,240.95361 h -386 v -86 h 386 z m -384,-2 h 382 v -82 h -382 z"
     fill="#3f3d56"
     id="path18" />
  <rect
     x="372.80576"
     y="147.95358"
     width="86"
     height="91"
     fill="#6c63ff"
     id="rect20" />
  <path
     d="m 406.59785,68.609823 c 22.70142,33.651627 1.31244,87.775447 1.31244,87.775447 0,0 -58.19523,-0.43626 -80.89664,-34.08788 -22.70141,-33.651624 -1.31244,-87.775447 -1.31244,-87.775447 0,0 58.19523,0.4363 80.89664,34.08788 z"
     fill="#6c63ff"
     id="path22" />
  <path
     d="m 417.01365,68.609823 c -22.70141,33.651627 -1.31244,87.775447 -1.31244,87.775447 0,0 58.19523,-0.43626 80.89664,-34.08788 22.70141,-33.651624 1.31244,-87.775447 1.31244,-87.775447 0,0 -58.19523,0.4363 -80.89664,34.08788 z"
     fill="#6c63ff"
     id="path24" />
  <circle
     cx="355.80576"
     cy="84.953598"
     r="9"
     fill="#3f3d56"
     id="circle26" />
  <circle
     cx="409.80576"
     cy="175.95358"
     r="9"
     fill="#3f3d56"
     id="circle28" />
  <circle
     cx="409.80576"
     cy="372.95358"
     r="9"
     fill="#3f3d56"
     id="circle30" />
  <circle
     cx="379.80576"
     cy="117.9536"
     r="6"
     fill="#3f3d56"
     id="circle32" />
  <circle
     cx="469.80576"
     cy="66.953598"
     r="6"
     fill="#3f3d56"
     id="circle34" />
  <circle
     cx="430.80576"
     cy="207.95358"
     r="6"
     fill="#3f3d56"
     id="circle36" />
  <circle
     cx="394.80576"
     cy="285.95358"
     r="6"
     fill="#3f3d56"
     id="circle38" />
  <circle
     cx="425.80576"
     cy="312.95358"
     r="6"
     fill="#3f3d56"
     id="circle40" />
  <circle
     cx="418.80576"
     cy="425.95361"
     r="6"
     fill="#3f3d56"
     id="circle42" />
  <polygon
     points="786.636,597.422 775.663,597.421 770.442,555.095 786.638,555.096 "
     fill="#ffb7b7"
     id="polygon44"
     transform="translate(2.2033891,-132.51452)" />
  <path
     d="m 791.63775,475.54425 -35.38273,-10e-4 v -0.44753 a 13.77268,13.77268 0 0 1 13.77195,-13.77173 h 8.7e-4 l 21.61057,8.7e-4 z"
     fill="#2f2e41"
     id="path46" />
  <polygon
     points="813.437,597.422 824.411,597.421 829.631,555.095 813.435,555.096 "
     fill="#ffb7b7"
     id="polygon48"
     transform="translate(2.2033891,-132.51452)" />
  <path
     d="m 812.84166,461.32459 21.61057,-8.7e-4 h 8.7e-4 a 13.77268,13.77268 0 0 1 13.77194,13.77173 v 0.44753 l -35.38272,10e-4 z"
     fill="#2f2e41"
     id="path50" />
  <circle
     cx="229.77705"
     cy="744.77234"
     r="19.17963"
     transform="rotate(-63.5798)"
     fill="#ffb7b7"
     id="circle52" />
  <path
     d="m 755.10091,257.55261 c 0,0 -6.05673,25.23635 -3.02834,37.34981 3.02839,12.11346 12.11347,94.88871 12.11347,94.88871 l 6.05674,65.61456 24.22688,2.01893 -3.02834,-76.71851 3.02834,-66.624 17.16073,64.60507 v 76.9473 l 25.69387,1.00946 0.55194,-100.16477 c 0,0 2.01893,-78.73743 -11.104,-88.832 -13.12293,-10.09457 -15.1418,-12.11344 -15.1418,-12.11344 z"
     fill="#2f2e41"
     id="path54" />
  <path
     d="m 791.67405,146.51263 22.98469,12.11344 3.02834,104.98325 c 0,0 -13.12294,-8.07564 -33.312,2.0189 -20.18906,10.09454 -33.312,3.02837 -33.312,3.02837 l 12.11347,-45.42546 -5.04727,-60.56726 7.21911,-6.55231 z"
     fill="#cbcbcb"
     id="path56" />
  <path
     d="m 765.35082,154.2008 -4.19317,3.41583 c 0,0 -26.24581,13.12291 -27.25528,22.208 l 18.1702,49.46326 c 0,0 5.04727,11.104 1.00947,15.1418 -4.0378,4.0378 -8.07566,14.13237 -7.0662,19.17964 1.00946,5.04727 -6.05673,26.24581 2.01893,26.24581 8.07566,0 27.25528,-48.45381 26.24581,-67.63345 -1.00947,-19.17964 -1.70819,-69.4178 -8.92976,-68.02089 z"
     fill="#2f2e41"
     id="path58" />
  <path
     d="m 782.99607,147.6501 9.24592,-1.53851 c 0,0 34.32147,9.08508 39.36874,24.22691 l -14.1324,35.33089 c 0,0 10.09459,64.60506 7.0662,64.60506 h -3.02834 c 0,0 8.07561,6.05673 3.02834,8.07564 -5.04727,2.01891 -17.16074,18.17017 -20.18908,11.104 -3.02834,-7.06617 -21.19854,-90.8509 -19.17961,-109.0211 2.01893,-18.1702 -3.97259,-30.87931 -2.17977,-32.78289 z"
     fill="#2f2e41"
     id="path60" />
  <path
     d="m 787.00865,106.82937 0.89831,-1.808 -4.5201,-2.24579 c 0,0 -4.9864,-8.113414 -14.00947,-5.833364 -9.02307,2.28005 -13.08269,3.644604 -13.08269,3.644604 l -4.50867,2.26861 2.26288,2.25149 -4.05952,1.36461 2.712,1.34746 -3.15554,1.81374 1.6987,9.29786 c 0,0 2.82141,-7.05207 8.2455,-4.35714 5.42409,2.69493 15.34557,-1.39311 15.34557,-1.39311 l 8.61958,16.68162 c 0,0 1.77822,-5.84774 4.94868,-4.28847 9e-5,0 8.0998,-12.89937 -1.39523,-18.74412 z"
     fill="#2f2e41"
     id="path62" />
  <path
     d="m 815.08583,283.96251 a 9.00059,9.00059 0 0 1 6.43327,-12.21026 l 3.88561,-31.74824 12.66131,10.76824 -5.63095,28.49778 a 9.04939,9.04939 0 0 1 -17.34924,4.69252 z"
     fill="#ffb7b7"
     id="path64" />
  <path
     d="m 760.93233,281.7778 a 9.00059,9.00059 0 0 0 -7.69169,-11.45929 l -7.23005,-31.15726 -11.4482,12.05 8.621,27.74006 a 9.04938,9.04938 0 0 0 17.749,2.82649 z"
     fill="#ffb7b7"
     id="path66" />
  <path
     d="m 815.57385,162.11197 c 0,0 13.12288,-5.0473 17.16074,10.09459 4.03786,15.14189 9.08507,45.42545 9.08507,45.42545 0.25091,16.83971 -0.64416,16.83971 0,33.312 l -3.02834,15.1418 -17.16073,-2.01893 0.74848,-38.54583 -8.82415,-39.18219 z"
     fill="#2f2e41"
     id="path68" />
  <path
     d="m 742.98745,173.76788 -6.222,0.66554 c 0,0 -5.89147,4.38173 -5.89147,14.47627 0,10.09454 -1.00947,40.37818 -1.00947,40.37818 0,0 -0.57254,0.70851 4.03781,26.24581 2.24714,12.44722 6.13047,18.321 6.13047,18.321 l 12.531,-11.63588 -1.50068,-29.90255 4.0378,-16.15127 z"
     fill="#2f2e41"
     id="path70" />
  <path
     d="M 931.20339,476.95361 H 3.2033891 a 1,1 0 0 1 0,-2 H 931.20339 a 1,1 0 0 1 0,2 z"
     fill="#3f3d56"
     id="path72" />
  <circle
     cx="232.85197"
     cy="157.69049"
     r="22.02776"
     fill="#ffb8b8"
     id="circle74" />
  <path
     d="m 224.89892,288.03274 q -0.41615,0 -0.836,-0.0368 a 9.86784,9.86784 0 0 1 -8.85646,-11.76339 9.23861,9.23861 0 0 1 0.24216,-0.938 l -32.51113,-38.451 a 7.66339,7.66339 0 0 1 -0.53316,-9.13413 l 0.0589,-0.0718 29.264,-28.85536 a 8.4592408,8.4592408 0 0 1 11.87842,12.04733 q -0.055,0.0543 -0.11111,0.10757 l -21.19485,20.14952 23.20311,37.24059 a 9.39035,9.39035 0 0 1 1.30871,0.16116 9.86758,9.86758 0 0 1 -1.91261,19.54433 z"
     fill="#ffb8b8"
     id="path76" />
  <polygon
     points="266.928,596.776 277.924,596.776 283.154,554.366 266.926,554.367 "
     fill="#ffb8b8"
     id="polygon78"
     transform="translate(2.2033891,-132.51452)" />
  <path
     d="m 266.32714,460.67213 21.65354,-8.7e-4 h 8.7e-4 a 13.79912,13.79912 0 0 1 13.79951,13.79869 v 0.449 l -35.45328,10e-4 z"
     fill="#2f2e41"
     id="path80" />
  <polygon
     points="157.641,581.575 167.089,587.2 193.281,553.436 179.338,545.134 "
     fill="#ffb8b8"
     id="polygon82"
     transform="translate(2.2033891,-132.51452)" />
  <path
     d="m 159.2713,444.54032 18.60547,11.07763 7.5e-4,4.6e-4 a 13.79912,13.79912 0 0 1 4.797,18.91612 l -2.9e-4,4.6e-4 -0.22942,0.38533 -30.46255,-18.13747 z"
     fill="#2f2e41"
     id="path84" />
  <path
     d="m 282.72153,449.2824 h -12.31231 a 4.02851,4.02851 0 0 1 -4.01309,-3.60932 l -12.4126,-116.67831 a 1.34555,1.34555 0 0 0 -2.564,-0.4116 l -22.39254,49.58379 -39.64482,64.64563 a 4.0551,4.0551 0 0 1 -5.06585,1.58354 l -15.83779,-6.96816 a 4.03709,4.03709 0 0 1 -1.83927,-5.76478 l 36.4445,-61.02314 11.17722,-51.4152 c -3.51538,-22.2971 11.55495,-55.44664 11.70778,-55.77951 l 0.0747,-0.162 41.5118,-16.22509 0.20818,0.25486 c 16.37107,53.72388 26.34689,111.53991 18.98108,198.27152 a 4.06315,4.06315 0 0 1 -4.02297,3.69777 z"
     fill="#2f2e41"
     id="path86" />
  <path
     d="m 224.37101,268.71612 -0.19333,-0.40639 c -0.0924,-0.19443 -9.32287,-19.66257 -16.43835,-40.46987 a 30.69125,30.69125 0 0 1 2.12808,-24.59616 31.02608,31.02608 0 0 1 19.78517,-15.21419 v 0 a 31.06385,31.06385 0 0 1 36.05541,18.60367 c 5.64412,14.11413 3.84532,29.17924 2.1525,41.0267 l -0.0337,0.23737 -0.2159,0.10334 z"
     fill="#6c63ff"
     id="path88" />
  <path
     d="m 259.56,145.24746 h -34.97747 v -15.24657 c 7.67716,-3.05 15.18965,-5.64384 19.73089,0 a 15.24671,15.24671 0 0 1 15.24661,15.24657 z"
     fill="#2f2e41"
     id="path90" />
  <path
     d="m 222.64604,127.31032 c -20.91019,0 -26.763,26.2101 -26.763,40.99656 0,8.24624 3.72934,11.19562 9.58956,12.1936 l 2.06962,-11.0378 4.84728,11.51276 c 1.64615,0.008 3.37549,-0.0236 5.16832,-0.0569 l 1.6435,-3.38414 3.66493,3.32342 c 14.6786,0.0219 26.54228,2.16158 26.54228,-12.55093 10e-6,-14.78646 -5.13279,-40.99656 -26.76249,-40.99656 z"
     fill="#2f2e41"
     id="path92" />
  <path
     d="m 315.59019,156.64444 q 0.19948,0.36519 0.36853,0.7513 a 9.86785,9.86785 0 0 1 -6.07712,13.41206 9.24155,9.24155 0 0 1 -0.93929,0.2372 l -18.15655,46.96587 a 7.66336,7.66336 0 0 1 -7.76025,4.84713 l -0.0913,-0.0173 -39.353,-11.84688 a 8.45924,8.45924 0 0 1 4.87818,-16.19994 q 0.0736,0.0222 0.14688,0.0457 l 27.84438,8.93958 21.557,-38.21713 a 9.38748,9.38748 0 0 1 -0.486,-1.22578 9.86762,9.86762 0 0 1 18.06859,-7.69186 z"
     fill="#ffb8b8"
     id="path94" />
  <path
     d="m 665.42206,37.353953 c -14.71126,-19.68715 -41.63633,-24.43848 -55.016,-14.4405 -13.37967,9.99798 -16.45312,37.16578 -1.74186,56.852923 13.61709,18.2229 38.28788,23.192734 51.87646,16.36552 a 1.70623,1.70623 0 0 0 -0.008,0.64694 l 0.7661,3.787494 a 1.72815,1.72815 0 0 0 2.75777,1.0192 l 6.48744,-5.068244 a 1.7282,1.7282 0 0 0 -0.32149,-2.92255 l -3.48973,-1.65968 a 1.71,1.71 0 0 0 -0.384,-0.12059 c 10.47419,-11.07332 12.72001,-36.198013 -0.92669,-54.460513 z"
     fill="#cccccc"
     id="path96" />
  <path
     d="m 633.24297,29.921033 a 28.43178,28.43178 0 0 1 23.81222,31.08457 c -0.15813,1.65975 2.43513,1.6489 2.59222,0 a 31.08812,31.08812 0 0 0 -25.71533,-33.58419 c -1.63169,-0.27736 -2.3329,2.22018 -0.68911,2.49962 z"
     fill="#ffffff"
     id="path98" />
  <path
     d="m 174.40108,62.046313 c 12.86166,-20.94237 7.33248,-47.71854 -6.90025,-56.4594896 -14.23273,-8.74095 -40.61474,-1.56289 -53.47639,19.3794796 -11.90506,19.38475 -7.41154,44.14672 3.95178,54.252923 a 1.7066,1.7066 0 0 0 -0.60414,0.23155 l -3.23673,2.11082 a 1.72815,1.72815 0 0 0 0.0714,2.9392 l 7.106,4.15682 a 1.72819,1.72819 0 0 0 2.59716,-1.37818 l 0.25344,-3.856 a 1.7105,1.7105 0 0 0 -0.0298,-0.40137 c 14.15887,5.64372 38.33656,-1.54882 50.26748,-20.975753 z"
     fill="#cccccc"
     id="path100" />
  <path
     d="m 169.42339,29.397243 a 28.43178,28.43178 0 0 1 -20.09183,33.60938 c -1.60081,0.46606 -0.63292,2.872 0.95741,2.40893 a 31.08811,31.08811 0 0 0 21.71181,-36.30114 c -0.34493,-1.61882 -2.92486,-1.34798 -2.57739,0.28283 z"
     fill="#ffffff"
     id="path102" />
  <path
     d="m 793.17696,-90.150803 a 28.43179,28.43179 0 0 1 2.181,39.09624 c -1.06508,1.28273 1.08432,2.73367 2.14242,1.45932 a 31.08812,31.08812 0 0 0 -2.34665,-42.23351 c -1.19247,-1.14783 -3.17802,0.52161 -1.97677,1.67795 z"
     fill="#ffffff"
     id="path106" />
</svg>
